HIERARCHY
ROOT Hips
{
	OFFSET 0.000000 0.000000 0.000000 
	CHANNELS 6 Xposition Yposition Zposition Zrotation Yrotation Xrotation
	JOINT LeftUpLeg
	{
		OFFSET 1.363060 -1.794630 0.839290 
		CHANNELS 3 Zrotation Yrotation Xrotation
		JOINT LeftLeg
		{
			OFFSET 2.448110 -6.726130 0.000000 
			CHANNELS 3 Zrotation Yrotation Xrotation
			JOINT LeftFoot
			{
				OFFSET 2.562200 -7.039590 0.000000 
				CHANNELS 3 Zrotation Yrotation Xrotation
				JOINT LeftToeBase
				{
					OFFSET 0.157640 -0.433110 2.322550 
					CHANNELS 3 Zrotation Yrotation Xrotation
					End Site
					{
						OFFSET 0.000000 0.000000 0.000000 
					}
				}
			}
		}
	}
	JOINT RightUpLeg
	{
		OFFSET -1.305520 -1.794630 0.839290 
		CHANNELS 3 Zrotation Yrotation Xrotation
		JOINT RightLeg
		{
			OFFSET -2.542530 -6.985550 0.000000 
			CHANNELS 3 Zrotation Yrotation Xrotation
			JOINT RightFoot
			{
				OFFSET -2.568260 -7.056230 0.000000 
				CHANNELS 3 Zrotation Yrotation Xrotation
				JOINT RightToeBase
				{
					OFFSET -0.164730 -0.452590 2.363150 
					CHANNELS 3 Zrotation Yrotation Xrotation
					End Site
					{
						OFFSET 0.000000 0.000000 0.000000 
					}
				}
			}
		}
	}
	JOINT Spine
	{
		OFFSET 0.028270 2.035590 -0.193380 
		CHANNELS 3 Zrotation Yrotation Xrotation
		JOINT Spine1
		{
			OFFSET 0.056720 2.048850 -0.042750 
			CHANNELS 3 Zrotation Yrotation Xrotation
			JOINT Neck1
			{
				OFFSET -0.054170 1.746240 0.172020 
				CHANNELS 3 Zrotation Yrotation Xrotation
				JOINT Head
				{
					OFFSET 0.104070 1.761360 -0.123970 
					CHANNELS 3 Zrotation Yrotation Xrotation
					End Site
					{
						OFFSET 0.000000 0.000000 0.000000 
					}
				}
			}
			JOINT LeftArm
			{
				OFFSET 3.362410 1.200890 -0.311210 
				CHANNELS 3 Zrotation Yrotation Xrotation
				JOINT LeftForeArm
				{
					OFFSET 4.983000 -0.000000 -0.000000 
					CHANNELS 3 Zrotation Yrotation Xrotation
					JOINT LeftHand
					{
						OFFSET 3.483560 -0.000000 -0.000000 
						CHANNELS 3 Zrotation Yrotation Xrotation
						JOINT LeftHandIndex1
						{
							OFFSET 0.715260 -0.000000 -0.000000 
							CHANNELS 3 Zrotation Yrotation Xrotation
							End Site
							{
								OFFSET 0.000000 0.000000 0.000000 
							}
						}
					}
				}
			}
			JOINT RightArm
			{
				OFFSET -3.136600 1.374050 -0.404650 
				CHANNELS 3 Zrotation Yrotation Xrotation
				JOINT RightForeArm
				{
					OFFSET -5.241900 -0.000000 -0.000000 
					CHANNELS 3 Zrotation Yrotation Xrotation
					JOINT RightHand
					{
						OFFSET -3.444170 -0.000000 -0.000000 
						CHANNELS 3 Zrotation Yrotation Xrotation
						JOINT RightHandIndex1
						{
							OFFSET -0.622530 -0.000000 -0.000000 
							CHANNELS 3 Zrotation Yrotation Xrotation
							End Site
							{
								OFFSET 0.000000 0.000000 0.000000 
							}
						}
					}
				}
			}
		}
	}
}
MOTION
Frames: 10
Frame Time: 0.041667
0.891454 18.391131 10.011335 -10.224178 1.038906 11.222503 -17.339319 -43.138473 19.259661 -3.731959 -2.308467 -3.020984 -14.575113 43.461144 -25.650739 0.086600 1.898000 5.223900 24.836376 26.505481 3.669706 3.781954 -0.302430 2.721870 9.399231 -28.280909 -7.157341 -0.035600 -1.217400 3.347200 12.507762 8.011597 -6.553426 -9.335660 1.412307 -12.082873 1.168513 3.010615 63.590408 0.867700 3.543000 20.000100 -85.403281 12.586173 32.702323 113.154407 -56.369156 -87.286502 1.439644 -1.232607 -76.340256 -7.125000 0.000000 0.000000 70.983206 17.306573 78.305533 -89.713339 56.857493 -64.632551 -1.260035 1.689110 30.043041 7.125000 0.000000 0.000000 
0.887976 18.394504 10.015762 -9.779545 0.839276 11.450690 -17.625451 -43.254427 19.134161 -3.736035 -2.282034 -2.976070 -14.505045 43.425741 -25.993853 0.102500 2.064400 5.683600 24.367339 26.767999 3.531153 3.785941 -0.309580 2.725054 9.448704 -28.352429 -7.221264 -0.040400 -1.296900 3.566200 11.262285 7.917716 -6.766113 -8.740420 1.517532 -12.057463 1.053111 3.063097 63.630682 0.822600 3.554000 19.974200 -85.231956 12.427412 32.698942 112.704397 -56.462410 -86.976894 1.450344 -1.212474 -76.677641 -7.125000 0.000000 0.000000 71.232044 17.375010 78.251354 -89.987492 56.891772 -64.883409 -1.257524 1.697284 30.612545 7.125000 0.000000 0.000000 
0.879332 18.401777 10.023668 -9.007558 0.467253 11.869272 -18.180679 -43.459315 18.941104 -3.742122 -2.249512 -2.936316 -14.486396 43.539000 -26.501255 0.116800 2.203800 6.069200 23.500010 27.263234 3.263231 3.789729 -0.336213 2.742818 9.552726 -28.525352 -7.309507 -0.047400 -1.405600 3.865600 9.454347 7.817871 -7.454519 -7.728381 1.705503 -11.914282 0.845337 3.177599 63.697738 0.753000 3.574900 19.962200 -85.113376 12.425627 32.746476 112.501499 -56.507230 -86.853014 1.452078 -1.203826 -76.876839 -7.125000 0.000000 0.000000 72.129461 16.822542 77.639051 -90.305324 56.970357 -65.220083 -1.253107 1.724359 31.666878 7.125000 0.000000 0.000000 
0.876697 18.405888 10.030520 -8.683381 0.229758 12.025816 -18.534352 -43.649089 19.027058 -3.751446 -2.247991 -2.937294 -14.502339 43.681255 -26.967673 0.129700 2.321700 6.395600 23.121432 27.518712 3.174083 3.790564 -0.339458 2.725468 9.606969 -28.626162 -7.278684 -0.044700 -1.365000 3.753600 8.741580 7.788314 -7.621925 -7.299906 1.794155 -11.907683 0.666894 3.252056 63.673813 0.684500 3.577900 19.935400 -85.094904 12.415343 32.846308 112.497684 -56.515856 -86.855219 1.429509 -1.227695 -76.746965 -7.125000 0.000000 0.000000 72.106745 17.145184 77.993145 -90.782821 57.001822 -65.620772 -1.254997 1.718888 31.422320 7.125000 0.000000 0.000000 
0.880386 18.406310 10.035579 -8.714055 0.161208 11.989409 -18.684290 -43.779811 19.274872 -3.760097 -2.265961 -2.965465 -14.529903 43.792428 -27.271968 0.135500 2.372500 6.536300 23.147093 27.518309 3.220469 3.790215 -0.327042 2.697139 9.597895 -28.606281 -7.199023 -0.039100 -1.276200 3.509200 8.796377 7.786797 -7.427117 -7.337920 1.790547 -11.989832 0.498532 3.301225 63.548284 0.614600 3.561700 19.858600 -85.145402 12.398380 32.888944 112.581321 -56.505945 -86.912361 1.393771 -1.258641 -76.488549 -7.125000 0.000000 0.000000 71.558650 17.999935 79.032266 -91.097139 56.978189 -65.830638 -1.255831 1.692631 30.417803 7.125000 0.000000 0.000000 
0.883443 18.407469 10.043274 -8.617116 0.056902 12.032951 -18.926796 -43.921286 19.504124 -3.768094 -2.273631 -2.991094 -14.548119 43.910657 -27.621812 0.146300 2.464700 6.791700 23.067233 27.479615 3.208607 3.787995 -0.328961 2.701130 9.575249 -28.539365 -7.085495 -0.033900 -1.188000 3.266200 8.287059 7.757843 -7.603580 -7.163312 1.820219 -12.011574 0.382121 3.337768 63.469419 0.572400 3.547500 19.793500 -85.213793 12.453001 32.845046 112.704488 -56.486821 -87.001599 1.375520 -1.275931 -76.406160 -7.125000 0.000000 0.000000 72.376844 17.522043 78.870225 -91.226243 57.039194 -65.991773 -1.250399 1.714386 30.916009 7.125000 0.000000 0.000000 
0.885551 18.409788 10.051707 -8.524855 -0.081697 12.018468 -19.114079 -43.944457 19.653824 -3.778086 -2.282294 -2.992858 -14.508843 43.918664 -27.946326 0.166000 2.624700 7.235500 22.989411 27.450652 3.219202 3.785726 -0.325290 2.698354 9.561204 -28.491040 -6.950541 -0.029000 -1.099200 3.021700 7.927909 7.727064 -7.402306 -7.048180 1.846295 -12.117797 0.120655 3.494269 63.463985 0.489300 3.577800 19.814700 -85.313240 12.420944 32.742269 112.828831 -56.476510 -87.076249 1.375896 -1.291283 -76.455211 -7.125000 0.000000 0.000000 71.535357 18.844644 80.583505 -91.577552 56.986574 -66.182450 -1.254308 1.662804 29.780614 7.125000 0.000000 0.000000 
0.887765 18.412845 10.058137 -8.538219 -0.237073 11.963322 -19.160907 -43.889130 19.731617 -3.787192 -2.290747 -2.982678 -14.464855 43.893060 -28.193795 0.180100 2.733400 7.537500 23.007255 27.468244 3.264796 3.784283 -0.311451 2.675698 9.543026 -28.441857 -6.829737 -0.026000 -1.040400 2.859900 7.858331 7.723891 -6.941005 -7.004468 1.861998 -12.270127 -0.336715 3.769082 63.409728 0.341100 3.624100 19.846700 -85.417919 12.313123 32.659037 112.855578 -56.485678 -87.083607 1.382493 -1.301804 -76.462601 -7.125000 0.000000 0.000000 71.319484 19.491336 81.575587 -91.742309 56.968755 -66.279821 -1.251513 1.645204 29.473981 7.125000 0.000000 0.000000 
0.890505 18.415586 10.063197 -8.579437 -0.388825 11.950103 -19.204385 -43.910107 19.850009 -3.795569 -2.292352 -2.969766 -14.435141 43.907147 -28.495786 0.194000 2.836800 7.824700 23.053233 27.457427 3.271866 3.780229 -0.307384 2.668602 9.506976 -28.354963 -6.653083 -0.023200 -0.984300 2.705700 7.697861 7.743234 -6.737314 -6.981241 1.880811 -12.376697 -0.624574 3.947568 63.249815 0.242700 3.654800 19.780700 -85.478292 12.295133 32.613971 112.950469 -56.474830 -87.154536 1.380725 -1.293885 -76.443305 -7.125000 0.000000 0.000000 71.523890 19.792951 82.232043 -91.706808 56.963729 -66.250421 -1.251166 1.647133 29.532997 7.125000 0.000000 0.000000 
0.893035 18.417273 10.068573 -8.574357 -0.521918 12.024926 -19.229802 -43.957103 19.925496 -3.800792 -2.290944 -2.982560 -14.413763 43.941866 -28.778207 0.206900 2.928900 8.080900 23.088389 27.492978 3.264114 3.778611 -0.309832 2.670626 9.480430 -28.293472 -6.591100 -0.025600 -1.033400 2.840700 7.124300 7.778629 -7.049282 -6.897619 1.922994 -12.389237 -0.642081 3.958349 63.147259 0.228900 3.664200 19.708100 -85.455069 12.415379 32.709901 113.302409 -56.408336 -87.414888 1.381743 -1.272568 -76.358922 -7.125000 0.000000 0.000000 71.847649 20.011402 82.874823 -91.511546 56.952824 -66.098170 -1.259761 1.648508 29.719965 7.125000 0.000000 0.000000 
